<?xml version="1.0" standalone="no"?>
   <!DOCTYPE svg PUBLIC "-//W3C//DTD SVG 1.1//EN" 
   "http://www.w3.org/Graphics/SVG/1.1/DTD/svg11.dtd"><svg id="svg" version="1.1" width="6141" height="4275" xmlns="http://www.w3.org/2000/svg"><path d="M2977.500 355.820 C 2832.077 366.546,2763.358 378.907,2662.500 412.481 C 2515.405 461.447,2381.306 535.028,2253.000 637.177 C 2198.705 680.403,2107.741 772.526,2072.544 819.933 C 1993.758 926.047,1882.355 1129.910,1845.998 1234.500 C 1841.983 1246.050,1831.296 1282.500,1822.248 1315.500 C 1813.200 1348.500,1803.351 1378.875,1800.362 1383.000 C 1785.717 1403.207,1730.029 1418.940,1549.778 1453.795 C 1286.584 1504.688,1120.699 1548.133,952.576 1610.202 C 648.397 1722.502,485.837 1864.035,513.402 1992.568 C 526.054 2051.564,576.862 2123.896,640.500 2173.509 C 722.441 2237.393,806.183 2276.955,987.000 2337.206 C 1151.420 2391.994,1294.224 2427.864,1492.734 2464.239 C 1622.983 2488.107,1635.122 2492.502,1670.957 2528.773 C 1700.354 2558.528,1729.563 2577.692,1792.500 2608.515 C 1853.236 2638.261,1909.195 2659.543,1975.073 2677.951 C 2102.019 2713.424,2129.971 2724.656,2144.749 2746.135 C 2161.785 2770.896,2186.382 2770.329,2203.287 2744.784 C 2207.402 2738.566,2213.515 2732.606,2216.870 2731.541 C 2220.226 2730.476,2234.116 2732.357,2247.736 2735.720 C 2305.801 2750.060,2521.706 2773.099,2715.000 2785.580 C 3039.334 2806.524,3620.477 2778.553,3871.024 2729.939 C 3910.958 2722.191,3944.444 2719.607,3954.417 2723.504 C 3958.771 2725.206,3966.196 2732.300,3970.917 2739.269 C 3975.638 2746.239,3981.642 2753.271,3984.260 2754.896 C 3996.765 2762.660,4029.000 2745.702,4029.000 2731.360 C 4029.000 2717.422,4066.346 2700.916,4202.867 2654.517 C 4318.373 2615.260,4359.239 2599.583,4398.908 2579.310 C 4433.978 2561.388,4453.668 2547.182,4488.603 2514.597 C 4525.047 2480.605,4548.396 2469.781,4599.867 2463.017 C 4724.624 2446.623,5052.182 2359.282,5215.057 2298.981 C 5298.408 2268.122,5381.551 2228.599,5443.380 2190.444 C 5767.981 1990.137,5658.635 1750.899,5166.000 1583.564 C 4989.694 1523.677,4826.859 1485.906,4540.500 1438.473 C 4456.350 1424.534,4383.168 1412.375,4377.872 1411.452 C 4368.352 1409.793,4368.091 1409.281,4354.473 1365.637 C 4304.614 1205.841,4279.826 1135.094,4264.161 1107.876 C 4258.434 1097.927,4254.656 1094.832,4246.327 1093.270 C 4228.505 1089.926,4224.000 1096.807,4224.000 1127.371 C 4224.000 1170.208,4235.918 1219.687,4295.670 1424.917 C 4308.867 1470.247,4319.403 1507.586,4319.083 1507.893 C 4318.762 1508.200,4300.275 1501.108,4278.000 1492.134 C 4204.613 1462.565,4151.298 1442.364,4092.000 1421.657 C 4043.519 1404.727,4032.020 1399.584,4024.856 1391.627 L 4016.213 1382.024 4018.856 1354.762 C 4023.266 1309.287,4021.775 1275.936,4014.212 1250.884 C 3999.608 1202.509,3974.424 1169.846,3937.334 1151.177 C 3908.413 1136.619,3869.175 1123.214,3833.065 1115.555 C 3789.257 1106.263,3721.783 1106.316,3678.023 1115.677 C 3582.465 1136.118,3515.180 1188.226,3491.666 1260.000 C 3475.794 1308.446,3474.992 1308.926,3407.405 1310.461 C 3328.312 1312.258,3246.107 1304.821,3232.137 1294.605 C 3226.904 1290.779,3227.242 1289.651,3238.556 1273.183 C 3245.125 1263.622,3275.220 1224.007,3305.433 1185.150 C 3401.233 1061.942,3417.091 1033.943,3432.109 961.500 C 3456.568 843.509,3443.692 741.725,3394.732 666.040 C 3359.163 611.057,3301.861 569.057,3235.500 549.330 C 3158.985 526.585,3052.957 528.827,2973.356 554.872 C 2842.464 597.700,2748.560 691.626,2717.782 810.505 C 2709.721 841.639,2706.893 894.438,2711.783 922.516 C 2725.197 999.546,2771.496 1084.665,2859.451 1194.000 C 2926.392 1277.212,2940.754 1296.847,2936.405 1299.203 C 2929.236 1303.087,2882.126 1308.102,2819.847 1311.611 C 2726.349 1316.879,2705.382 1312.466,2666.938 1279.424 C 2631.432 1248.908,2566.110 1221.502,2502.397 1210.392 C 2469.371 1204.632,2414.752 1204.778,2385.624 1210.704 C 2305.694 1226.964,2205.654 1276.723,2152.019 1326.897 C 2129.029 1348.403,2116.313 1365.992,2108.702 1386.816 C 2099.098 1413.089,2087.698 1421.306,2037.314 1438.266 C 1993.034 1453.171,1955.206 1470.758,1898.430 1502.833 C 1869.869 1518.968,1846.136 1531.880,1845.690 1531.525 C 1844.377 1530.480,1871.679 1399.912,1879.796 1368.417 C 1957.781 1065.833,2127.525 805.523,2356.500 637.375 C 2443.813 573.257,2553.702 518.302,2670.146 480.524 C 2819.863 431.950,2981.032 408.012,3099.921 416.691 C 3217.146 425.248,3388.711 456.341,3426.791 475.931 C 3460.374 493.208,3510.000 480.308,3510.000 454.302 C 3510.000 442.128,3485.375 418.620,3467.995 414.202 C 3460.573 412.316,3432.214 403.468,3404.975 394.541 C 3316.226 365.455,3248.153 356.830,3097.500 355.582 C 3039.750 355.104,2985.750 355.211,2977.500 355.820 M3628.364 502.364 C 3609.535 521.193,3626.622 543.338,3679.500 568.635 C 3709.108 582.799,3736.872 591.000,3755.218 591.000 C 3769.780 591.000,3778.617 582.850,3775.879 571.944 C 3771.665 555.151,3714.426 514.077,3676.822 500.860 C 3653.425 492.636,3637.600 493.127,3628.364 502.364 M3184.500 565.407 C 3258.140 575.954,3281.346 584.439,3309.543 611.127 C 3365.497 664.085,3395.503 720.222,3408.488 796.239 C 3413.745 827.017,3414.455 840.891,3413.183 888.000 C 3411.865 936.757,3410.711 946.763,3403.680 970.352 C 3389.091 1019.304,3356.487 1072.509,3261.115 1203.000 C 3182.558 1310.484,3155.897 1355.983,3143.834 1403.149 C 3130.141 1456.688,3141.396 1513.364,3181.559 1593.116 C 3204.201 1638.079,3233.073 1736.707,3245.935 1813.034 C 3253.973 1860.734,3255.391 1908.919,3248.944 1915.288 C 3234.431 1929.625,3018.666 1932.892,2977.477 1919.398 C 2960.498 1913.835,2957.409 1902.839,2957.417 1848.000 C 2957.428 1766.883,2971.484 1700.782,3010.919 1596.396 C 3034.629 1533.637,3042.187 1502.014,3042.189 1465.561 C 3042.194 1393.101,3010.520 1334.292,2897.017 1196.018 C 2814.801 1095.858,2790.100 1060.821,2765.709 1009.760 C 2738.701 953.222,2730.741 900.881,2740.314 842.785 C 2764.495 696.041,2894.504 585.903,3070.500 563.067 C 3092.782 560.176,3157.210 561.498,3184.500 565.407 M3876.855 649.429 C 3866.537 653.915,3862.077 663.932,3865.077 675.884 C 3868.392 689.092,3890.342 719.085,3917.429 747.419 C 3947.894 779.285,3964.109 789.192,3976.535 783.530 C 3987.048 778.740,3995.976 762.684,3995.989 748.543 C 3996.015 720.250,3957.006 671.263,3920.816 654.142 C 3899.506 644.061,3891.238 643.175,3876.855 649.429 M3271.500 708.985 C 3253.433 716.069,3243.567 723.038,3228.921 739.063 C 3181.048 791.445,3152.784 902.810,3152.292 1041.000 C 3152.174 1074.098,3153.574 1103.463,3155.760 1113.750 C 3159.395 1130.858,3159.514 1131.000,3170.174 1131.000 C 3213.816 1131.000,3334.862 1013.271,3369.291 937.339 C 3394.481 881.783,3392.221 816.223,3362.666 745.177 C 3353.226 722.485,3345.671 713.359,3332.055 708.200 C 3320.981 704.004,3282.946 704.498,3271.500 708.985 M2922.000 757.509 C 2868.052 769.505,2833.142 787.550,2822.882 808.743 C 2814.742 825.559,2811.901 861.991,2816.867 885.883 C 2825.479 927.314,2859.819 976.408,2921.198 1035.039 C 2986.648 1097.559,3025.958 1125.171,3043.314 1120.815 C 3061.142 1116.340,3068.970 1075.895,3068.923 988.500 C 3068.862 874.909,3057.451 830.872,3018.015 792.050 C 2983.334 757.908,2959.220 749.233,2922.000 757.509 M4069.719 847.710 C 4048.536 868.893,4072.995 931.027,4124.854 987.769 C 4143.788 1008.486,4154.919 1013.709,4165.441 1006.815 C 4186.047 993.313,4186.453 975.289,4167.085 933.957 C 4146.853 890.783,4119.450 856.871,4097.346 847.652 C 4083.200 841.752,4075.661 841.768,4069.719 847.710 M3808.844 1138.644 C 3869.379 1149.200,3920.266 1172.848,3953.784 1206.000 C 3983.917 1235.803,3997.406 1269.504,3997.011 1314.000 C 3996.650 1354.764,3981.314 1383.941,3911.540 1476.611 C 3810.587 1610.691,3789.999 1675.595,3807.075 1805.941 C 3810.898 1835.123,3813.235 1861.060,3812.268 1863.579 C 3808.751 1872.744,3745.529 1882.240,3732.927 1875.496 C 3723.388 1870.391,3718.160 1855.937,3709.638 1811.109 C 3696.108 1739.937,3679.436 1702.834,3622.417 1617.000 C 3602.139 1586.475,3579.338 1550.176,3571.747 1536.335 C 3475.397 1360.661,3493.065 1226.588,3621.000 1162.593 C 3660.488 1142.841,3697.287 1134.689,3748.857 1134.271 C 3767.203 1134.122,3794.197 1136.090,3808.844 1138.644 M2531.817 1243.955 C 2624.570 1262.748,2685.848 1316.178,2697.410 1388.340 C 2705.548 1439.133,2684.993 1503.946,2638.909 1572.804 C 2612.710 1611.951,2590.731 1638.452,2535.119 1697.948 C 2466.509 1771.350,2440.749 1804.660,2420.919 1845.612 C 2392.373 1904.565,2365.629 1886.337,2338.595 1789.500 C 2319.764 1722.046,2298.852 1685.767,2239.114 1616.906 C 2139.189 1501.724,2118.556 1459.305,2135.684 1404.273 C 2157.196 1335.154,2248.124 1272.664,2362.964 1248.076 C 2421.305 1235.585,2483.067 1234.078,2531.817 1243.955 M3861.824 1249.617 C 3838.602 1255.871,3812.230 1270.169,3801.616 1282.256 C 3784.883 1301.315,3780.238 1330.960,3780.098 1419.602 C 3780.007 1477.505,3782.482 1504.521,3788.811 1514.715 C 3792.929 1521.345,3809.455 1519.156,3823.063 1510.177 C 3878.764 1473.423,3954.093 1344.308,3946.723 1298.220 C 3942.510 1271.874,3928.141 1254.905,3904.500 1248.357 C 3889.262 1244.137,3881.298 1244.372,3861.824 1249.617 M3631.500 1286.511 C 3618.209 1294.617,3603.137 1313.016,3594.351 1331.863 C 3587.801 1345.912,3586.601 1352.700,3586.634 1375.500 C 3586.680 1406.501,3591.527 1423.951,3609.485 1457.767 C 3631.344 1498.930,3679.262 1554.000,3693.220 1554.000 C 3696.715 1554.000,3703.473 1551.697,3708.239 1548.882 C 3725.902 1538.448,3732.805 1511.063,3732.658 1452.000 C 3732.542 1405.388,3726.517 1367.016,3714.219 1334.559 C 3707.197 1316.026,3688.192 1292.322,3674.805 1285.399 C 3663.109 1279.351,3642.367 1279.884,3631.500 1286.511 M2476.500 1366.022 C 2439.779 1378.170,2428.365 1392.359,2419.292 1437.138 C 2405.657 1504.428,2426.327 1629.621,2453.085 1641.812 C 2474.627 1651.628,2506.740 1608.909,2565.563 1492.187 C 2587.445 1448.766,2593.204 1434.612,2594.283 1421.606 C 2595.600 1405.725,2595.321 1405.025,2582.566 1392.202 C 2563.546 1373.080,2541.944 1364.063,2512.500 1362.955 C 2498.170 1362.416,2483.665 1363.651,2476.500 1366.022 M3398.972 1384.806 C 3439.382 1387.247,3473.430 1390.230,3474.635 1391.435 C 3475.840 1392.640,3485.499 1414.523,3496.099 1440.063 C 3532.805 1528.504,3553.751 1567.633,3607.750 1648.641 C 3660.689 1728.058,3686.345 1789.893,3689.222 1845.000 C 3691.205 1882.986,3689.114 1885.687,3653.248 1891.475 C 3582.658 1902.867,3375.144 1922.898,3323.222 1923.332 C 3294.595 1923.572,3286.421 1922.655,3280.071 1918.495 C 3272.421 1913.482,3272.299 1912.894,3274.868 1893.431 C 3286.549 1804.963,3259.710 1682.792,3205.282 1576.682 C 3174.665 1516.994,3164.600 1485.389,3164.140 1447.500 C 3163.727 1413.476,3170.649 1390.172,3182.554 1385.505 C 3204.612 1376.858,3264.207 1376.666,3398.972 1384.806 M2971.268 1382.872 C 2988.556 1386.882,2997.431 1394.644,3007.418 1414.489 C 3015.047 1429.649,3016.505 1436.393,3017.499 1461.143 C 3019.007 1498.701,3013.062 1522.381,2983.730 1595.662 C 2945.275 1691.730,2938.212 1724.747,2933.921 1828.500 C 2932.351 1866.450,2930.224 1903.238,2929.193 1910.250 C 2927.029 1924.971,2933.785 1923.618,2865.000 1923.107 C 2744.025 1922.210,2516.985 1903.256,2464.500 1889.673 C 2443.006 1884.111,2439.588 1870.256,2452.737 1842.000 C 2463.550 1818.765,2478.067 1800.487,2529.762 1745.018 C 2668.221 1596.450,2732.642 1493.407,2732.948 1420.017 C 2733.047 1396.258,2751.219 1388.701,2821.500 1383.192 C 2864.218 1379.843,2957.348 1379.644,2971.268 1382.872 M2265.000 1395.252 C 2255.925 1396.821,2241.440 1401.542,2232.811 1405.743 C 2179.705 1431.599,2181.246 1490.041,2236.867 1559.559 C 2259.482 1587.824,2323.120 1647.770,2338.090 1654.908 C 2347.981 1659.625,2348.889 1659.558,2358.913 1653.363 C 2378.247 1641.414,2384.632 1608.664,2378.869 1551.000 C 2372.497 1487.237,2351.069 1424.540,2328.163 1402.639 C 2320.172 1394.998,2316.321 1393.683,2300.198 1393.088 C 2289.914 1392.709,2274.075 1393.683,2265.000 1395.252 M4027.770 1479.067 C 4067.161 1489.139,4116.649 1509.760,4207.500 1553.960 C 4290.373 1594.278,4309.653 1611.818,4313.346 1650.253 C 4315.116 1668.670,4308.251 1680.258,4283.139 1701.240 C 4223.123 1751.389,4142.537 1789.165,4024.268 1822.592 C 3979.892 1835.135,3883.647 1856.524,3860.474 1858.993 L 3843.449 1860.808 3840.358 1849.154 C 3834.038 1825.329,3830.369 1781.959,3830.235 1729.500 C 3830.111 1681.331,3830.816 1673.394,3836.763 1656.000 C 3854.650 1603.676,3915.581 1510.404,3946.016 1488.755 C 3970.224 1471.535,3989.417 1469.261,4027.770 1479.067 M4457.004 1481.917 C 4570.619 1500.635,4786.783 1545.455,4900.500 1573.874 C 5158.825 1638.430,5382.192 1730.637,5486.376 1815.725 C 5532.168 1853.124,5559.000 1906.691,5559.000 1960.711 C 5559.000 1994.283,5548.788 2011.850,5502.310 2058.230 C 5474.058 2086.422,5455.350 2101.997,5428.302 2119.842 C 5144.748 2306.921,4451.345 2453.362,3619.500 2501.848 C 3299.430 2520.504,2882.755 2522.889,2560.500 2507.910 C 2004.606 2482.071,1513.393 2414.845,1147.500 2314.529 C 978.576 2268.216,806.049 2194.318,700.500 2123.068 C 662.898 2097.685,616.137 2050.212,603.815 2024.911 C 584.279 1984.797,584.182 1947.694,603.511 1908.000 C 617.608 1879.051,665.586 1832.253,714.000 1800.227 C 850.943 1709.641,1094.110 1622.923,1403.711 1554.264 C 1489.235 1535.298,1781.272 1480.272,1783.672 1482.672 C 1784.679 1483.679,1784.004 1496.840,1782.170 1511.918 C 1771.384 1600.631,1772.584 1649.063,1786.621 1691.464 C 1811.655 1767.083,1878.796 1814.466,2034.000 1866.044 C 2350.181 1971.118,2878.300 2018.921,3375.430 1987.463 C 3583.391 1974.303,3781.015 1948.325,3936.000 1913.773 C 4166.022 1862.494,4338.900 1780.362,4376.048 1704.712 C 4384.367 1687.771,4384.500 1686.649,4384.500 1633.500 C 4384.500 1603.800,4383.286 1559.131,4381.803 1534.237 C 4380.319 1509.342,4380.007 1485.379,4381.110 1480.987 C 4383.730 1470.549,4388.342 1470.605,4457.004 1481.917 M2115.000 1506.811 C 2136.779 1539.286,2178.991 1593.180,2220.102 1641.000 C 2294.445 1727.474,2312.261 1759.530,2328.164 1835.428 C 2331.729 1852.438,2334.162 1866.817,2333.572 1867.382 C 2330.644 1870.184,2253.529 1855.579,2199.000 1841.894 C 2090.967 1814.783,2006.721 1786.303,1948.500 1757.212 C 1912.119 1739.034,1896.037 1728.487,1877.008 1710.329 C 1822.184 1658.015,1850.298 1603.760,1960.500 1549.204 C 1992.022 1533.599,2093.427 1491.506,2100.000 1491.297 C 2102.475 1491.219,2109.225 1498.200,2115.000 1506.811 M4467.600 1536.600 C 4461.007 1543.193,4463.257 1556.790,4471.568 1560.577 C 4481.133 1564.935,4499.584 1560.690,4504.206 1553.068 C 4511.580 1540.908,4478.275 1525.925,4467.600 1536.600 M1558.233 1618.487 C 1552.622 1627.049,1554.389 1644.098,1561.498 1649.999 C 1569.228 1656.414,1587.010 1654.354,1595.279 1646.085 C 1604.973 1636.391,1602.611 1625.114,1589.169 1616.918 C 1575.665 1608.684,1564.278 1609.261,1558.233 1618.487 M4789.650 1613.815 C 4797.169 1621.241,4906.845 1647.107,4929.798 1646.867 L 4942.500 1646.735 4931.938 1641.149 C 4903.422 1626.067,4777.578 1601.892,4789.650 1613.815 M4601.925 1630.696 C 4598.247 1640.370,4602.567 1649.223,4612.878 1653.144 C 4625.329 1657.877,4626.919 1656.828,4625.021 1645.128 C 4621.785 1625.190,4607.429 1616.219,4601.925 1630.696 M1219.500 1637.001 C 1144.441 1653.323,1020.000 1693.380,1020.000 1701.218 C 1020.000 1705.063,1022.163 1704.848,1055.302 1697.718 C 1118.909 1684.032,1241.845 1645.533,1246.622 1637.803 C 1248.349 1635.008,1231.022 1634.495,1219.500 1637.001 M1470.000 1752.000 C 1462.779 1759.221,1462.498 1763.521,1468.670 1772.332 C 1477.437 1784.848,1497.000 1778.028,1497.000 1762.456 C 1497.000 1755.384,1487.210 1746.000,1479.832 1746.000 C 1477.725 1746.000,1473.300 1748.700,1470.000 1752.000 M4563.032 1810.461 C 4553.617 1821.806,4569.106 1839.553,4588.958 1840.168 C 4601.366 1840.552,4606.808 1834.614,4604.065 1823.684 C 4600.497 1809.468,4571.588 1800.152,4563.032 1810.461 M5090.325 1822.676 C 5078.333 1829.184,5075.173 1837.386,5072.829 1868.081 C 5069.957 1905.694,5059.446 1927.934,5030.265 1958.134 C 4958.201 2032.718,4789.794 2103.276,4537.500 2164.591 C 4003.753 2294.306,3168.739 2337.804,2412.000 2275.313 C 2004.548 2241.666,1673.024 2183.059,1429.500 2101.625 C 1349.904 2075.009,1292.708 2051.147,1228.106 2017.606 C 1126.071 1964.630,1105.512 1947.570,1083.031 1897.220 C 1060.118 1845.902,1049.732 1833.605,1032.499 1837.390 C 992.949 1846.077,1000.990 1911.792,1049.443 1975.866 C 1085.356 2023.357,1120.751 2049.985,1198.500 2088.004 C 1359.917 2166.935,1621.714 2242.189,1881.997 2284.476 C 2227.525 2340.612,2651.489 2369.957,3117.000 2369.957 C 3390.997 2369.957,3609.848 2361.692,3834.000 2342.880 C 4551.144 2282.692,5066.132 2120.069,5135.161 1932.000 C 5143.850 1908.326,5145.805 1889.985,5141.922 1868.569 C 5134.266 1826.349,5115.051 1809.258,5090.325 1822.676 M1555.205 1875.993 C 1547.871 1882.302,1547.250 1883.982,1550.715 1888.156 C 1555.768 1894.245,1575.949 1894.586,1580.863 1888.665 C 1582.842 1886.281,1584.019 1881.218,1583.480 1877.415 C 1582.025 1867.152,1566.396 1866.366,1555.205 1875.993 M4400.769 1910.769 C 4384.245 1927.294,4391.884 1956.695,4410.161 1946.914 C 4417.882 1942.782,4427.974 1926.536,4427.989 1918.215 C 4428.001 1911.467,4419.415 1902.000,4413.283 1902.000 C 4411.224 1902.000,4405.592 1905.946,4400.769 1910.769 M1750.965 1955.486 C 1744.451 1962.684,1744.664 1971.861,1751.486 1978.035 C 1759.126 1984.949,1768.800 1984.228,1774.330 1976.332 C 1780.502 1967.521,1780.221 1963.221,1773.000 1956.000 C 1765.527 1948.527,1757.434 1948.338,1750.965 1955.486 M4143.600 1974.600 C 4133.206 1984.994,4148.730 2007.000,4166.456 2007.000 L 4176.790 2007.000 4175.149 1994.767 C 4174.247 1988.039,4171.160 1979.939,4168.289 1976.767 C 4162.435 1970.298,4149.074 1969.126,4143.600 1974.600 M1949.951 2006.436 C 1941.244 2013.487,1944.040 2023.282,1957.018 2031.196 C 1973.592 2041.302,1986.000 2037.394,1986.000 2022.068 C 1986.000 2003.074,1965.227 1994.066,1949.951 2006.436 M3930.600 2028.600 C 3924.243 2034.957,3926.328 2048.422,3934.500 2053.776 C 3941.448 2058.328,3942.552 2058.328,3949.500 2053.776 C 3954.520 2050.487,3957.000 2046.107,3957.000 2040.531 C 3957.000 2030.110,3952.065 2025.000,3942.000 2025.000 C 3937.710 2025.000,3932.580 2026.620,3930.600 2028.600 M2164.356 2047.299 C 2158.845 2055.710,2161.928 2064.610,2172.270 2070.144 C 2185.886 2077.431,2200.533 2054.733,2189.400 2043.600 C 2183.122 2037.322,2169.583 2039.322,2164.356 2047.299 M3679.035 2059.631 C 3676.855 2065.312,3679.818 2085.018,3683.389 2088.589 C 3687.394 2092.594,3694.810 2088.498,3698.594 2080.194 C 3703.225 2070.028,3702.944 2067.944,3696.000 2061.000 C 3688.835 2053.835,3681.486 2053.242,3679.035 2059.631 M2391.106 2072.803 C 2383.954 2086.165,2389.453 2097.000,2403.386 2097.000 C 2412.732 2097.000,2421.000 2090.076,2421.000 2082.251 C 2421.000 2068.879,2397.227 2061.366,2391.106 2072.803 M3371.217 2085.750 C 3369.038 2091.489,3372.227 2108.460,3376.076 2111.602 C 3380.641 2115.328,3400.926 2107.125,3403.457 2100.531 C 3406.091 2093.665,3392.052 2082.000,3381.154 2082.000 C 3376.472 2082.000,3372.001 2083.688,3371.217 2085.750 M2860.714 2095.714 C 2848.716 2107.713,2861.866 2127.324,2877.838 2121.252 C 2887.906 2117.424,2890.809 2107.707,2884.680 2098.353 C 2879.124 2089.874,2867.802 2088.627,2860.714 2095.714 M5113.500 2188.094 C 5044.200 2218.138,4978.751 2247.396,4968.058 2253.110 C 4951.340 2262.045,4949.693 2263.626,4956.303 2264.400 C 4966.561 2265.602,5013.854 2250.220,5062.193 2229.960 C 5139.238 2197.668,5262.208 2132.822,5245.500 2133.296 C 5242.200 2133.390,5182.800 2158.049,5113.500 2188.094 M834.383 2159.030 C 840.535 2166.546,903.781 2195.787,961.500 2217.801 C 1070.835 2259.502,1159.948 2285.191,1178.196 2280.271 C 1186.086 2278.143,1185.635 2277.707,1169.137 2271.516 C 1159.588 2267.932,1151.088 2265.000,1150.248 2265.000 C 1149.409 2265.000,1095.122 2245.275,1029.611 2221.166 C 909.889 2177.107,842.822 2154.000,834.662 2154.000 C 830.911 2154.000,830.870 2154.739,834.383 2159.030 M2218.903 2219.348 C 2217.802 2221.129,2218.044 2223.291,2219.439 2224.153 C 2226.448 2228.485,2268.534 2232.580,2310.498 2233.014 C 2352.512 2233.448,2365.081 2232.081,2360.568 2227.568 C 2354.240 2221.240,2222.459 2213.594,2218.903 2219.348 M2382.345 2231.486 C 2379.011 2233.788,2379.603 2235.159,2385.345 2238.424 C 2393.655 2243.149,2485.383 2244.294,2500.500 2239.861 L 2509.500 2237.222 2500.500 2234.431 C 2487.697 2230.460,2387.449 2227.962,2382.345 2231.486 M4390.388 2507.724 C 4396.001 2509.919,4395.932 2510.251,4388.888 2514.856 C 4338.281 2547.939,4008.002 2637.955,3825.342 2668.448 C 3718.326 2686.313,3526.469 2704.299,3327.000 2715.165 C 3232.312 2720.323,2929.204 2722.188,2824.500 2718.256 C 2434.181 2703.600,2140.635 2660.756,1917.000 2585.806 C 1885.050 2575.098,1740.430 2514.192,1746.615 2514.049 C 1747.777 2514.022,1818.652 2520.732,1904.115 2528.960 C 2289.974 2566.109,2535.739 2580.175,2899.221 2585.915 C 3373.333 2593.402,3854.583 2569.723,4213.500 2521.248 C 4318.016 2507.132,4377.286 2502.601,4390.388 2507.724 M3696.000 2601.223 C 3646.750 2604.927,3606.104 2610.404,3604.127 2613.603 C 3599.795 2620.613,3609.926 2623.294,3638.286 2622.642 C 3687.630 2621.507,3802.380 2606.820,3808.321 2600.879 C 3811.738 2597.462,3743.217 2597.672,3696.000 2601.223 M4038.855 2830.429 C 4021.616 2837.924,4021.818 2861.911,4039.618 2920.752 C 4061.008 2991.466,4071.238 3004.788,4094.793 2992.607 C 4100.735 2989.534,4103.764 2985.253,4104.872 2978.357 C 4110.681 2942.218,4077.833 2838.810,4057.618 2829.600 C 4053.273 2827.620,4049.444 2826.053,4049.109 2826.117 C 4048.774 2826.182,4044.160 2828.122,4038.855 2830.429 M2128.050 2837.785 C 2099.044 2855.472,2065.473 2938.550,2067.615 2987.344 L 2068.500 3007.500 2078.665 3008.471 C 2084.256 3009.005,2091.914 3008.668,2095.684 3007.722 C 2105.843 3005.172,2120.491 2991.758,2126.958 2979.082 C 2134.070 2965.142,2160.000 2875.436,2160.000 2864.772 C 2160.000 2852.889,2154.049 2838.237,2147.882 2834.937 C 2140.418 2830.942,2138.919 2831.157,2128.050 2837.785 M3083.327 2861.250 C 3069.722 2876.767,3062.169 2906.072,3057.212 2962.584 C 3050.919 3034.332,3055.376 3196.053,3064.652 3232.500 C 3075.779 3276.225,3100.918 3289.182,3115.782 3258.854 C 3129.315 3231.241,3122.602 2902.116,3107.703 2862.750 C 3104.538 2854.386,3090.123 2853.499,3083.327 2861.250 M4106.190 3065.250 C 4091.853 3081.131,4092.108 3128.536,4106.777 3174.329 C 4124.776 3230.519,4145.219 3249.169,4165.550 3227.948 C 4172.841 3220.338,4174.396 3215.918,4175.311 3200.198 C 4177.340 3165.377,4152.428 3089.918,4131.750 3068.250 C 4122.725 3058.792,4113.046 3057.656,4106.190 3065.250 M3601.766 3078.231 C 3597.494 3083.308,3593.107 3091.013,3592.018 3095.352 C 3586.194 3118.557,3615.824 3308.018,3661.371 3538.813 C 3682.456 3645.651,3688.957 3666.353,3708.367 3688.460 C 3719.561 3701.209,3729.151 3702.068,3737.782 3691.095 C 3745.199 3681.667,3745.345 3676.139,3739.511 3625.482 C 3722.079 3474.110,3668.426 3168.622,3649.210 3111.335 C 3635.237 3069.676,3618.683 3058.126,3601.766 3078.231 M2065.067 3074.976 C 2046.286 3082.555,2013.530 3133.754,1998.110 3179.632 C 1992.911 3195.099,1992.292 3200.520,1994.877 3207.937 C 2003.020 3231.297,2020.423 3234.830,2040.041 3217.106 C 2071.586 3188.607,2100.491 3093.234,2082.514 3076.965 C 2076.414 3071.445,2074.390 3071.214,2065.067 3074.976 M2550.864 3076.949 C 2542.844 3080.202,2535.153 3099.460,2526.480 3138.000 C 2499.199 3259.235,2438.868 3589.392,2431.329 3658.704 C 2429.527 3675.263,2430.021 3677.689,2436.785 3685.554 C 2442.346 3692.018,2446.872 3694.200,2454.722 3694.200 C 2472.822 3694.200,2478.990 3687.490,2487.954 3658.051 C 2505.451 3600.583,2533.871 3461.972,2558.598 3313.500 C 2581.304 3177.156,2587.593 3111.472,2579.882 3091.190 C 2574.783 3077.779,2563.032 3072.012,2550.864 3076.949 M4171.364 3298.364 C 4165.393 3304.334,4164.003 3308.733,4164.017 3321.614 C 4164.037 3341.071,4167.155 3353.378,4181.270 3389.724 C 4195.119 3425.384,4211.375 3452.571,4224.038 3461.250 C 4236.426 3469.740,4237.583 3469.690,4247.022 3460.251 C 4254.184 3453.089,4254.659 3450.987,4253.302 3432.501 C 4250.814 3398.629,4223.976 3327.307,4203.723 3300.750 C 4194.423 3288.555,4182.083 3287.645,4171.364 3298.364 M1970.641 3315.016 C 1951.731 3334.894,1929.575 3388.328,1918.627 3440.458 C 1914.830 3458.539,1914.943 3459.742,1921.073 3466.465 C 1932.388 3478.877,1939.999 3478.900,1951.638 3466.560 C 1972.068 3444.898,1997.783 3393.160,2008.423 3352.313 C 2014.534 3328.851,2014.196 3320.330,2006.782 3310.905 C 1997.217 3298.745,1984.772 3300.160,1970.641 3315.016 M4252.934 3526.495 C 4238.085 3541.343,4246.707 3604.930,4270.342 3654.891 C 4283.982 3683.724,4306.060 3697.161,4321.385 3685.955 C 4326.049 3682.545,4326.657 3679.136,4325.266 3664.205 C 4322.206 3631.357,4287.572 3539.392,4274.246 3528.731 C 4266.682 3522.680,4257.692 3521.736,4252.934 3526.495 M1915.431 3539.842 C 1885.623 3551.930,1850.221 3631.592,1855.981 3673.617 C 1857.971 3688.135,1866.631 3702.000,1873.709 3702.000 C 1889.206 3702.000,1917.944 3656.352,1932.259 3609.000 C 1941.250 3579.256,1941.919 3547.315,1933.677 3541.271 C 1927.170 3536.499,1924.239 3536.269,1915.431 3539.842 M4313.752 3765.248 C 4307.920 3771.080,4307.381 3773.992,4308.867 3791.651 C 4310.618 3812.457,4326.169 3860.250,4338.397 3882.404 C 4346.931 3897.866,4357.718 3904.725,4369.034 3901.885 C 4388.896 3896.900,4393.212 3881.576,4384.384 3847.380 C 4369.196 3788.542,4332.791 3746.209,4313.752 3765.248 M1828.983 3788.978 C 1802.774 3811.990,1789.857 3890.123,1808.909 3910.403 C 1817.465 3919.510,1822.433 3919.848,1835.013 3912.177 C 1857.048 3898.741,1871.142 3855.273,1869.403 3806.114 C 1868.922 3792.528,1858.050 3780.000,1846.741 3780.000 C 1842.598 3780.000,1834.607 3784.040,1828.983 3788.978 " stroke="none" fill="black" fill-rule="evenodd"/></svg>